<?xml version="1.0" standalone="no"?>
<!DOCTYPE svg PUBLIC "-//W3C//DTD SVG 20010904//EN"
 "http://www.w3.org/TR/2001/REC-SVG-20010904/DTD/svg10.dtd">
<svg version="1.0" xmlns="http://www.w3.org/2000/svg"
 width="444.000000pt" height="512.000000pt" viewBox="0 0 444.000000 512.000000"
 preserveAspectRatio="xMidYMid meet">

<g transform="translate(0.000000,512.000000) scale(0.100000,-0.100000)"
fill="#000000" stroke="none">
<path d="M3068 4943 c-122 -252 -143 -345 -143 -621 0 -202 0 -202 -19 -175
-38 55 -147 153 -210 188 -83 46 -159 72 -255 85 -114 15 -115 15 -109 -94 6
-105 35 -210 85 -310 48 -95 96 -157 187 -244 44 -41 71 -74 64 -76 -7 -3 -46
-7 -87 -10 -63 -5 -112 -15 -278 -53 l-23 -5 0 285 c0 265 -1 286 -19 308
l-19 24 -961 3 -962 2 -24 -24 c-23 -23 -25 -33 -25 -111 0 -78 2 -88 25 -110
50 -51 115 -13 115 66 l0 39 155 0 155 0 0 -305 0 -305 -155 0 -155 0 0 115
c0 111 -1 117 -26 141 -19 20 -31 24 -52 20 -56 -14 -62 -33 -62 -206 0 -210
-5 -204 159 -208 l121 -4 0 -58 0 -57 -137 -6 c-92 -3 -153 -10 -183 -21 -65
-24 -137 -80 -171 -134 -62 -98 -60 -28 -57 -1388 l3 -1239 26 -56 c37 -79 90
-133 167 -171 l67 -33 597 -3 c420 -2 604 1 618 8 12 6 25 22 30 36 9 23 14
24 95 24 69 0 85 -3 85 -15 0 -8 9 -24 20 -35 19 -19 33 -20 274 -20 322 0
354 7 455 106 65 64 66 65 91 49 65 -42 215 -107 296 -127 131 -33 313 -31
446 5 116 31 248 97 340 170 65 51 71 54 140 60 267 23 495 178 608 412 78
162 75 123 75 930 0 784 2 756 -58 904 -68 169 -226 323 -401 392 -90 36 -119
36 -145 3 -37 -47 -21 -91 39 -109 14 -4 60 -25 103 -47 139 -69 246 -199 303
-368 17 -49 19 -88 19 -375 l0 -320 -345 -3 c-322 -2 -346 -1 -370 16 -103 77
-258 138 -409 163 l-73 12 4 231 c4 218 6 235 30 303 37 105 72 159 153 240
79 77 170 129 280 157 88 23 111 71 60 122 -15 14 -35 50 -46 80 -11 29 -36
76 -55 104 -19 27 -32 50 -30 50 3 0 35 -7 73 -16 50 -12 98 -15 178 -11 136
6 205 28 368 116 96 52 117 68 117 86 0 19 -13 28 -73 54 -139 57 -366 111
-472 111 -23 0 -44 3 -48 6 -3 4 19 27 49 51 149 122 262 323 294 523 24 153
14 167 -105 151 -92 -13 -182 -43 -255 -84 -54 -30 -190 -157 -223 -207 l-16
-25 7 35 c4 19 7 107 7 195 0 240 -38 391 -156 628 -81 161 -84 160 -171 -20z
m-1868 -1138 l0 -305 -165 0 -165 0 0 305 0 305 165 0 165 0 0 -305z m480 0
l0 -305 -165 0 -165 0 0 305 0 305 165 0 165 0 0 -305z m1440 -15 l0 -69 -61
-36 c-33 -19 -62 -35 -65 -35 -2 0 -4 21 -4 48 0 58 26 109 70 140 54 36 60
31 60 -48z m150 32 c42 -41 66 -106 56 -147 l-7 -26 -62 35 -62 35 -3 71 c-3
66 -2 70 19 70 12 0 38 -17 59 -38z m-150 -242 c0 -55 -6 -57 -63 -17 l-29 20
39 22 c21 13 41 24 46 24 4 1 7 -21 7 -49z m121 29 c34 -17 39 -23 28 -35 -12
-14 -61 -44 -74 -44 -3 0 -5 23 -5 50 0 28 2 50 5 50 3 0 24 -9 46 -21z m-805
-269 c93 -24 220 -26 319 -5 38 8 71 15 73 15 2 0 -11 -17 -27 -37 -54 -68
-85 -150 -85 -228 l-1 -70 60 0 c98 0 187 58 246 160 l29 50 0 -130 c0 -89 4
-135 12 -143 7 -7 36 -12 66 -12 l54 0 -50 -62 c-63 -81 -94 -136 -125 -224
-36 -101 -47 -198 -47 -413 l0 -188 -76 -12 c-90 -15 -186 -47 -271 -90 l-63
-31 0 498 c0 549 -2 572 -61 664 -35 54 -107 111 -170 134 -29 11 -91 18 -181
21 l-138 6 0 57 0 58 120 4 c94 2 123 6 136 19 15 16 19 16 60 -2 24 -11 78
-29 120 -39z m915 -246 l20 -22 -51 -31 c-27 -17 -52 -31 -55 -31 -3 0 -5 50
-5 112 l0 112 36 -60 c19 -32 44 -69 55 -80z m-1134 -31 c60 -79 58 -53 61
-620 2 -338 -1 -536 -7 -560 -6 -21 -37 -73 -70 -117 -32 -43 -80 -120 -106
-170 -43 -83 -46 -87 -38 -46 4 25 8 106 7 180 -1 123 -4 144 -31 228 -42 124
-101 221 -198 318 -149 150 -318 223 -531 232 -101 4 -134 1 -210 -18 -149
-38 -258 -96 -362 -193 -168 -159 -254 -355 -254 -582 0 -138 24 -234 89 -365
41 -81 62 -110 148 -195 86 -87 113 -107 195 -148 143 -71 234 -90 394 -85
115 4 142 8 220 36 49 17 121 51 160 74 91 53 219 182 275 276 24 39 44 72 46
72 1 0 -4 -26 -11 -57 -37 -153 -25 -351 31 -499 14 -36 25 -83 25 -103 -1
-80 -63 -160 -140 -181 -27 -7 -298 -10 -837 -8 l-798 3 -45 24 c-25 13 -55
33 -68 44 l-22 20 0 1156 c0 1104 1 1158 19 1196 10 22 32 52 48 67 62 59 25
57 1045 57 l936 1 29 -37z m-1162 -917 c13 -19 13 -28 4 -49 -13 -29 1 -57 27
-57 20 0 17 -11 -12 -43 l-24 -29 -19 24 c-15 18 -29 23 -66 23 -33 0 -51 5
-58 16 -15 24 0 68 26 74 13 4 28 19 34 36 15 38 64 41 88 5z m538 -5 c6 -17
21 -32 34 -36 26 -6 41 -50 26 -74 -7 -11 -25 -16 -58 -16 -39 0 -50 -5 -68
-27 l-22 -27 -22 34 c-27 41 -28 45 -9 45 26 0 40 28 27 57 -17 37 8 73 50 73
25 0 33 -6 42 -29z m-253 -71 c0 -5 -4 -11 -10 -15 -5 -3 -7 -12 -4 -20 4 -8
-1 -18 -10 -21 -9 -3 -16 -10 -16 -15 0 -5 13 -3 29 5 17 9 28 23 27 33 -4 55
102 -18 135 -92 14 -33 26 -152 20 -210 -1 -10 -47 -37 -83 -49 -15 -4 -18
-18 -18 -79 0 -48 -5 -78 -12 -84 -7 -6 -59 -13 -115 -17 -134 -8 -143 -1
-143 109 0 68 -2 75 -20 75 -11 0 -20 7 -20 15 0 8 7 15 15 15 10 0 15 9 14
28 0 26 0 27 -10 4 -5 -13 -13 -21 -18 -17 -6 3 -14 -2 -19 -11 -8 -15 -12
-14 -27 10 -27 41 -17 169 18 227 28 49 84 105 115 117 27 9 152 3 152 -8z
m1873 -166 c87 -20 193 -67 277 -124 l62 -42 -118 -119 c-475 -477 -996 -994
-1003 -997 -15 -5 -112 158 -142 239 -105 289 -25 619 206 843 97 94 243 174
370 201 86 19 261 18 348 -1z m-2093 -280 c0 -41 -4 -51 -36 -78 -33 -29 -35
-33 -24 -58 25 -55 -37 -102 -82 -61 -10 9 -18 21 -18 27 0 6 -14 19 -30 28
-36 20 -40 56 -9 83 17 16 24 17 52 7 30 -11 33 -10 69 25 21 20 40 45 44 55
3 10 12 18 20 18 10 0 14 -13 14 -46z m350 33 c0 -7 19 -32 43 -55 41 -40 44
-41 74 -30 28 10 35 9 52 -7 31 -27 27 -63 -9 -83 -16 -9 -30 -21 -30 -26 0
-19 -34 -46 -56 -46 -14 0 -30 10 -40 25 -14 22 -15 30 -5 53 12 25 10 29 -28
65 -35 32 -41 44 -41 77 0 33 3 40 20 40 11 0 20 -6 20 -13z m2216 -69 c203
-288 202 -637 -1 -923 -150 -211 -389 -335 -644 -335 -163 0 -306 45 -451 141
l-62 42 558 558 c308 308 562 559 565 559 3 0 19 -19 35 -42z m-1655 -145
c-12 -20 -14 -14 -5 12 4 9 9 14 11 11 3 -2 0 -13 -6 -23z"/>
<path d="M1118 1930 c-33 -34 -37 -79 -10 -103 23 -21 45 -21 82 -2 58 30 75
80 40 115 -30 30 -79 25 -112 -10z"/>
<path d="M1325 1940 c-63 -70 59 -165 124 -96 16 17 20 30 15 50 -14 59 -101
88 -139 46z"/>
<path d="M1245 1790 c-20 -39 -7 -60 37 -60 36 0 47 24 27 59 -21 38 -45 38
-64 1z"/>
<path d="M1191 1643 c-1 -7 -8 -13 -16 -13 -8 0 -15 -4 -15 -10 0 -5 6 -10 14
-10 8 0 17 -6 19 -12 4 -10 6 -10 6 0 1 6 7 12 15 12 8 0 17 -6 19 -12 4 -10
6 -10 6 0 1 6 7 12 15 12 8 0 17 -6 19 -12 4 -10 6 -10 6 0 1 6 7 12 15 12 8
0 17 -6 19 -12 4 -10 8 -9 16 2 9 13 12 13 20 1 8 -12 12 -12 26 2 15 16 15
18 0 34 -14 14 -18 14 -26 2 -8 -12 -11 -12 -20 1 -8 11 -12 12 -16 3 -2 -7
-11 -13 -18 -13 -7 0 -16 6 -18 13 -4 10 -6 10 -6 0 -1 -7 -7 -13 -15 -13 -8
0 -17 6 -19 13 -4 10 -6 10 -6 0 -1 -7 -7 -13 -15 -13 -8 0 -17 6 -19 13 -4
10 -6 10 -6 0z"/>
<path d="M661 4605 c-61 -14 -157 -55 -212 -91 -26 -17 -29 -16 -75 6 -60 28
-152 39 -165 19 -15 -24 -11 -155 6 -169 19 -16 85 -5 154 26 l54 24 46 -28
c25 -15 69 -37 96 -49 100 -42 151 -46 480 -39 767 17 1061 27 1087 37 39 16
61 70 56 135 -5 63 -34 101 -82 109 -27 4 -427 15 -1151 30 -180 4 -244 2
-294 -10z m256 -62 c-2 -5 -28 -48 -57 -96 l-53 -89 -56 7 c-31 3 -80 13 -109
21 l-53 15 21 32 c11 18 30 49 42 69 12 20 28 39 37 41 29 8 232 7 228 0z
m310 -7 c3 -2 -17 -41 -43 -85 l-49 -81 -102 0 c-56 0 -108 -3 -117 -6 -28
-11 -18 18 36 105 l51 84 110 -6 c60 -3 111 -8 114 -11z m313 0 c0 -2 -20 -37
-45 -78 l-45 -75 -112 -6 c-61 -4 -114 -5 -116 -2 -3 2 17 41 44 85 l49 80
112 0 c62 0 113 -2 113 -4z m200 -11 c0 -3 -16 -37 -35 -75 l-35 -70 -71 0
c-39 0 -69 4 -67 8 2 5 21 39 43 75 l40 67 63 0 c34 0 62 -2 62 -5z m-1181
-47 c-22 -42 -30 -48 -50 -37 -27 14 -24 23 14 42 44 22 50 21 36 -5z m-233
-13 c10 -8 17 -15 14 -15 -3 0 -20 -4 -38 -9 -30 -9 -32 -8 -32 15 0 28 25 32
56 9z m1474 -30 c0 -41 -2 -45 -25 -45 l-25 0 22 45 c12 25 23 45 25 45 2 0 3
-20 3 -45z"/>
</g>
</svg>
